<mxfile host="app.diagrams.net" agent="Mozilla/5.0 (X11; Linux x86_64) AppleWebKit/537.36 (KHTML, like Gecko) Chrome/129.0.0.0 Safari/537.36" version="24.8.3">
  <diagram name="Pàgina-1" id="mhbHxmUa4zc_a_H4eHv1">
    <mxGraphModel dx="2074" dy="1146" grid="1" gridSize="10" guides="1" tooltips="1" connect="1" arrows="1" fold="1" page="1" pageScale="1" pageWidth="827" pageHeight="1169" math="0" shadow="0">
      <root>
        <mxCell id="0" />
        <mxCell id="1" parent="0" />
        <mxCell id="nDoupkzm5FQX2KSZ8H6b-1" value="&lt;i style=&quot;font-size: 16px;&quot;&gt;&lt;font style=&quot;font-size: 12px;&quot;&gt;Commit inicial&lt;/font&gt;&lt;/i&gt;" style="ellipse;whiteSpace=wrap;html=1;fillColor=#f5f5f5;fontColor=#333333;strokeColor=#666666;" vertex="1" parent="1">
          <mxGeometry x="130" y="450" width="60" height="60" as="geometry" />
        </mxCell>
        <mxCell id="nDoupkzm5FQX2KSZ8H6b-2" style="rounded=0;orthogonalLoop=1;jettySize=auto;html=1;" edge="1" parent="1" source="nDoupkzm5FQX2KSZ8H6b-3" target="nDoupkzm5FQX2KSZ8H6b-1">
          <mxGeometry relative="1" as="geometry" />
        </mxCell>
        <mxCell id="nDoupkzm5FQX2KSZ8H6b-3" value="&lt;i style=&quot;font-size: 16px;&quot;&gt;&lt;font style=&quot;font-size: 12px;&quot;&gt;Menjar&lt;/font&gt;&lt;/i&gt;" style="ellipse;whiteSpace=wrap;html=1;fillColor=#f5f5f5;fontColor=#333333;strokeColor=#666666;" vertex="1" parent="1">
          <mxGeometry x="370" y="450" width="60" height="60" as="geometry" />
        </mxCell>
        <mxCell id="nDoupkzm5FQX2KSZ8H6b-4" style="rounded=0;orthogonalLoop=1;jettySize=auto;html=1;exitX=0.5;exitY=1;exitDx=0;exitDy=0;fillColor=#dae8fc;strokeColor=#6c8ebf;" edge="1" parent="1" source="nDoupkzm5FQX2KSZ8H6b-5" target="nDoupkzm5FQX2KSZ8H6b-3">
          <mxGeometry relative="1" as="geometry">
            <mxPoint x="359" y="470" as="targetPoint" />
          </mxGeometry>
        </mxCell>
        <mxCell id="nDoupkzm5FQX2KSZ8H6b-5" value="menjar" style="ellipse;whiteSpace=wrap;html=1;fillColor=#dae8fc;strokeColor=#6c8ebf;fontSize=16;fontStyle=1" vertex="1" parent="1">
          <mxGeometry x="280" y="385" width="100" height="40" as="geometry" />
        </mxCell>
        <mxCell id="nDoupkzm5FQX2KSZ8H6b-6" value="&lt;i style=&quot;font-size: 16px;&quot;&gt;&lt;font style=&quot;font-size: 12px;&quot;&gt;Beguda&lt;/font&gt;&lt;/i&gt;" style="ellipse;whiteSpace=wrap;html=1;fillColor=#f5f5f5;fontColor=#333333;strokeColor=#666666;" vertex="1" parent="1">
          <mxGeometry x="370" y="610" width="60" height="60" as="geometry" />
        </mxCell>
        <mxCell id="nDoupkzm5FQX2KSZ8H6b-7" style="rounded=0;orthogonalLoop=1;jettySize=auto;html=1;exitX=0.5;exitY=1;exitDx=0;exitDy=0;fillColor=#dae8fc;strokeColor=#6c8ebf;" edge="1" parent="1" source="nDoupkzm5FQX2KSZ8H6b-8" target="nDoupkzm5FQX2KSZ8H6b-6">
          <mxGeometry relative="1" as="geometry">
            <mxPoint x="319" y="615" as="targetPoint" />
          </mxGeometry>
        </mxCell>
        <mxCell id="nDoupkzm5FQX2KSZ8H6b-8" value="beguda" style="ellipse;whiteSpace=wrap;html=1;fillColor=#dae8fc;strokeColor=#6c8ebf;fontSize=16;fontStyle=1" vertex="1" parent="1">
          <mxGeometry x="350" y="540" width="100" height="40" as="geometry" />
        </mxCell>
        <mxCell id="nDoupkzm5FQX2KSZ8H6b-9" style="rounded=0;orthogonalLoop=1;jettySize=auto;html=1;" edge="1" parent="1" source="nDoupkzm5FQX2KSZ8H6b-6" target="nDoupkzm5FQX2KSZ8H6b-1">
          <mxGeometry relative="1" as="geometry">
            <mxPoint x="405" y="428.5" as="sourcePoint" />
            <mxPoint x="257" y="571.5" as="targetPoint" />
          </mxGeometry>
        </mxCell>
        <mxCell id="nDoupkzm5FQX2KSZ8H6b-10" value="&lt;font color=&quot;#0066cc&quot; style=&quot;font-size: 14px;&quot;&gt;&lt;b&gt;Ancestre comú&lt;/b&gt;&lt;/font&gt;" style="text;html=1;strokeColor=none;fillColor=none;align=center;verticalAlign=middle;whiteSpace=wrap;rounded=0;fontStyle=2" vertex="1" parent="1">
          <mxGeometry x="130" y="525" width="60" height="30" as="geometry" />
        </mxCell>
        <mxCell id="nDoupkzm5FQX2KSZ8H6b-12" style="rounded=0;orthogonalLoop=1;jettySize=auto;html=1;exitX=0.5;exitY=1;exitDx=0;exitDy=0;fillColor=#d5e8d4;strokeColor=#82b366;" edge="1" parent="1" source="nDoupkzm5FQX2KSZ8H6b-13" target="nDoupkzm5FQX2KSZ8H6b-3">
          <mxGeometry relative="1" as="geometry">
            <mxPoint x="635" y="450" as="targetPoint" />
          </mxGeometry>
        </mxCell>
        <mxCell id="nDoupkzm5FQX2KSZ8H6b-13" value="main" style="ellipse;whiteSpace=wrap;html=1;fillColor=#d5e8d4;strokeColor=#82b366;fontSize=16;fontStyle=1" vertex="1" parent="1">
          <mxGeometry x="409" y="385" width="100" height="40" as="geometry" />
        </mxCell>
        <mxCell id="nDoupkzm5FQX2KSZ8H6b-14" style="edgeStyle=orthogonalEdgeStyle;rounded=0;orthogonalLoop=1;jettySize=auto;html=1;exitX=0.5;exitY=1;exitDx=0;exitDy=0;fillColor=#f5f5f5;strokeColor=#666666;" edge="1" parent="1" source="nDoupkzm5FQX2KSZ8H6b-15" target="nDoupkzm5FQX2KSZ8H6b-13">
          <mxGeometry relative="1" as="geometry">
            <mxPoint x="635" y="380" as="targetPoint" />
          </mxGeometry>
        </mxCell>
        <mxCell id="nDoupkzm5FQX2KSZ8H6b-15" value="HEAD" style="ellipse;whiteSpace=wrap;html=1;fillColor=#f5f5f5;strokeColor=#666666;fontSize=16;fontStyle=1;fontColor=#333333;" vertex="1" parent="1">
          <mxGeometry x="409" y="320" width="100" height="40" as="geometry" />
        </mxCell>
      </root>
    </mxGraphModel>
  </diagram>
</mxfile>
